<?xml version="1.0" standalone="no"?><!DOCTYPE svg PUBLIC "-//W3C//DTD SVG 1.1//EN" "http://www.w3.org/Graphics/SVG/1.1/DTD/svg11.dtd"><svg t="1693142189449" class="icon" viewBox="0 0 1024 1024" version="1.1" xmlns="http://www.w3.org/2000/svg" p-id="1466" xmlns:xlink="http://www.w3.org/1999/xlink" width="200" height="200"><path d="M372.352 675.882667m-228.394667 0a228.394667 228.394667 0 1 0 456.789334 0 228.394667 228.394667 0 1 0-456.789334 0Z" fill="#F9EF00" p-id="1467"></path><path d="M692.608 117.546667a42.666667 42.666667 0 0 1 58.112-16.298667l124.202667 69.845333c23.253333 13.44 36.821333 40.533333 30.592 68.906667l-27.264 131.925333a42.666667 42.666667 0 0 1-83.541334-17.237333l15.018667-72.917333-7.466667 2.56a321.706667 321.706667 0 0 0-45.866666 20.821333c-36.522667 20.096-79.274667 52.693333-108.629334 103.338667-29.696 51.2-37.973333 104.832-38.570666 146.645333-0.256 20.778667 1.365333 38.229333 3.072 50.218667a236.544 236.544 0 0 0 2.944 16.768l0.128 0.554666v-0.042666a42.837333 42.837333 0 0 1-83.157334 20.821333v-0.128l-0.085333-0.170667-0.085333-0.554666-0.426667-1.578667a322.816 322.816 0 0 1-4.266667-23.808 420.992 420.992 0 0 1-3.797333-63.232c0.682667-51.456 10.88-120.832 50.090667-188.501333 39.552-68.138667 96.042667-110.378667 141.482666-135.424 18.645333-10.24 35.712-17.792 49.493334-23.125334l-55.68-31.274666a42.666667 42.666667 0 0 1-16.298667-58.112zM190.933333 286.08c0-47.274667 38.058667-85.333333 85.333334-85.333333h235.52a42.666667 42.666667 0 1 0 0-85.333334h-235.52c-94.378667 0-170.666667 76.288-170.666667 170.666667v471.466667c0 94.378667 76.288 170.666667 170.666667 170.666666h471.466666c94.378667 0 170.666667-76.288 170.666667-170.666666v-235.52a42.666667 42.666667 0 1 0-85.333333 0v235.52c0 47.274667-38.058667 85.333333-85.333334 85.333333H276.266667c-47.274667 0-85.333333-38.058667-85.333334-85.333333V286.08z" fill="#000000" p-id="1468"></path></svg>